<svg xmlns="http://www.w3.org/2000/svg" xmlns:xlink="http://www.w3.org/1999/xlink" viewBox="0 0 900 700">
  <defs>
    <style>
        .cls-1 {
            fill: #eff0f5;
        }
        .cls-2 {
            fill: #cdd3e3;
        }
        .cls-3 {
            fill: none;
        }
        .cls-4 {
            fill: #333;
        }
        .cls-5 {
            fill: #f9a972;
        }
        .cls-6 {
            opacity: 0.4;
        }
        .cls-7 {
            fill: #010101;
        }
        .cls-8 {
            fill: #fff;
        }
        .cls-9 {
            fill: #3d3c3b;
        }
        .cls-10 {
            fill: #58595b;
        }
        .cls-11 {
            fill: #808285;
        }
        .cls-12 {
            fill: #d3d3d3;
        }
        .cls-13 {
            fill: url("#Fade_to_Black");
        }
        .cls-14 {
            fill: #484748;
        }
        .cls-15 {
            fill: #303030;
        }
        .cls-16 {
            fill: #b0aeaf;
        }
        .cls-17 {
            fill: #434343;
        }
        .cls-18 {
            fill: #232323;
        }
        .cls-19 {
            fill: #939598;
        }
        .cls-20 {
            fill: #323233;
        }
        .cls-21 {
            fill: #f1f2f2;
        }
        .cls-22 {
            fill: #2d2d2d;
        }
        .rotate-gear-animation {
          -webkit-animation: rotateGear 8s infinite linear;
          -moz-animation: rotateGear 8s infinite linear;
          -o-animation: rotateGear 8s infinite linear;
          -ms-animation: rotateGear 8s infinite linear;
          animation: rotateGear 8s infinite linear;
          -webkit-transform-origin: center center;
          transform-origin: center center;
        }

        .minute-hand-animation {
          -webkit-animation: rotateClock 20s infinite linear;
          -moz-animation: rotateClock 20s infinite linear;
          -o-animation: rotateClock 20s infinite linear;
          -ms-animation: rotateClock 20s infinite linear;
          animation: rotateClock 20s infinite linear;
          -webkit-transform-origin: 0% 100%;
        }
        .hour-hand-animation {
          -webkit-animation: rotateClock 8s infinite linear;
          -moz-animation: rotateClock 8s infinite linear;
          -o-animation: rotateClock 8s infinite linear;
          -ms-animation: rotateClock 8s infinite linear;
          animation: rotateClock 8s infinite linear;
          -webkit-transform-origin: 0% 100%;
        }

        @-webkit-keyframes rotateClock {
          0% { -webkit-transform: rotate(0deg);}
          100% { -webkit-transform: rotate(360deg);}
        }

        @-keyframes rotateClock {
          0% { transform: rotate(0deg);}
          100% { transform: rotate(360deg);}
        }

        @-webkit-keyframes rotateGear {
          0% { -webkit-transform: rotate(0deg);}
          100% { -webkit-transform: rotate(360deg);}
        }

        @-keyframes rotateGear {
          0% { transform: rotate(0deg);}
          100% { transform: rotate(360deg);}
        }

        @-webkit-keyframes rotateHour {
          0% { -webkit-transform: rotate(0deg);}
          100% { -webkit-transform: rotate(360deg);}
        }

        @-keyframes rotateHour {
          0% { transform: rotate(0deg);}
          100% { transform: rotate(360deg);}
        }
      </style>
      <linearGradient id="Fade_to_Black" x1="4525.27" y1="310.49" x2="4529.94" y2="310.49" gradientTransform="translate(-4245.69)" gradientUnits="userSpaceOnUse"><stop offset="0" stop-color="#231f20"/><stop offset="0.09" stop-color="#231f20"/><stop offset="1" stop-color="#231f20"/></linearGradient>
  </defs>
    <title>Give Time To Life</title>
    <g id="Clock_background" data-name="Clock background"><circle class="cls-1" cx="296.66" cy="298.58" r="194.15"/><rect class="cls-2" x="291.86" y="121.73" width="8.17" height="38.45"/><rect class="cls-2" x="208.1" y="144.95" width="8.17" height="21.08" transform="translate(-49.74 131.07) rotate(-30.91)"/><rect class="cls-2" x="148.65" y="205.86" width="8.17" height="21.08" transform="translate(-110.69 244.04) rotate(-60.78)"/><rect class="cls-2" x="429.46" y="212.31" width="21.08" height="8.17" transform="translate(-49.65 242.37) rotate(-29.23)"/><rect class="cls-2" x="142.19" y="378.59" width="21.08" height="8.17" transform="translate(-167.37 123.24) rotate(-29.22)"/><rect class="cls-2" x="435.91" y="372.14" width="8.17" height="21.08" transform="translate(-108.77 579.88) rotate(-60.78)"/><rect class="cls-2" x="291.86" y="437.46" width="8.17" height="38.45"/><rect class="cls-2" x="120.05" y="294.49" width="38.45" height="8.17"/><rect class="cls-2" x="434.34" y="294.49" width="38.45" height="8.17"/><rect class="cls-2" x="368.89" y="149.96" width="21.08" height="8.17" transform="translate(52.38 400.49) rotate(-59.1)"/><rect class="cls-2" x="201.78" y="437.46" width="21.08" height="8.17" transform="translate(-275.59 397.01) rotate(-59.1)"/><rect class="cls-2" x="375.48" y="432.45" width="8.17" height="21.08" transform="translate(-173.64 257.85) rotate(-30.91)"/><circle class="cls-2" cx="292.53" cy="302.9" r="17.78" transform="translate(-119.65 389.05) rotate(-57.8)"/><path class="cls-3" d="M296.66,117.41c-99.9,0-181.17,81.27-181.17,181.17s81.27,181.17,181.17,181.17,181.17-81.27,181.17-181.17S396.56,117.41,296.66,117.41Z"/></g>
    <g id="Tik_1" data-name="Tik 1"><rect class="cls-2 minute-hand-animation" x="305" y="220" width="15.14" height="90.32" /></g>
    <g id="Tik_2" data-name="Tik 2"><rect class="cls-2 hour-hand-animation" x="295" y="280" width="132.79" height="15.14" /></g>
    <g id="Guy"><path class="cls-4" d="M262.12,153.08s-.91-31.47,39.91-22.2c9.46,2.22,23.51,8.82,22,30.31l-14.43,15.59S293.09,149,262.12,153.08Z"/><path
        class="cls-5"
        d="M324,161.19c-1.1-2.89-10.59-5-13.48,13.48l.28-20.49s-7.56-10.86-9.76-11.41l-10.56-.22-1.74.13-2.12.16-17.1,1.3-5.89,1-1.51,8c0,2.06.69,17.05.69,17.05s-5.41,7.42-3.62,19.25c1.1,6.88,7.56,15.85,32.91,15.54l-.6,9.46L290,216.14l-1,12.17,17.15-10.87c-5.08-2.92-5.54-2.59-5.36-4.81.37-4.72.92-9.49.92-9.49s13.06-5.36,14.44-27.5C320.83,174.12,327.71,173.16,324,161.19Z"/><path class="cls-4" d="M286.12,150.56v5.57a23,23,0,0,1,19.6,7S301.21,151.61,286.12,150.56Z"/><path class="cls-4" d="M262.4,160.91s1.71-4.38,8.69-4.07l-.85-3.82s-4.35-.41-7.85,6Z"/>
        <g class="cls-6"><path
            class="cls-7"
            d="M272.74,185.17a.32.32,0,0,1,0,.17.12.12,0,0,1-.1.07.51.51,0,0,1-.26-.07,2,2,0,0,1-.46-.34,3.79,3.79,0,0,1-.62-.8,4.3,4.3,0,0,1-.55-1.54,4.22,4.22,0,0,1,0-1.11,4.36,4.36,0,0,1,.34-1.26,6.06,6.06,0,0,1,1.21-1.76l0,0,0,0a7,7,0,0,1,2.45-1.31,9,9,0,0,1,1.4-.29,10,10,0,0,1,1.43-.07,9.24,9.24,0,0,1,1.42.14l.11,0,.08,0h0l.05,0,.11,0,.35.14a6.75,6.75,0,0,1,.64.32,7.33,7.33,0,0,1,2,1.7,4.81,4.81,0,0,1,.66,1,3.48,3.48,0,0,1,.27,2.1,4.11,4.11,0,0,1-.25.81c-.06.12-.1.23-.16.33l-.16.28c-.11.17-.2.31-.29.42l-.27.34.22-.37c.07-.12.14-.27.23-.45l.12-.29c0-.1.07-.22.11-.33a3.87,3.87,0,0,0,.14-.78,3.47,3.47,0,0,0-.07-.9,3.75,3.75,0,0,0-1.05-1.77,6.77,6.77,0,0,0-2-1.32,3.71,3.71,0,0,0-1.11-.34,8.67,8.67,0,0,0-1.26,0,9.41,9.41,0,0,0-1.24.16,8.26,8.26,0,0,0-1.17.33,6,6,0,0,0-1.89,1.14l.05-.05a5,5,0,0,0-.89,1.34,3.28,3.28,0,0,0-.27,1.59,4.38,4.38,0,0,0,.26,1.15c.11.31.22.56.31.75a4.36,4.36,0,0,1,.18.45.48.48,0,0,1,0,.24.14.14,0,0,1-.07.1A.25.25,0,0,1,272.74,185.17Z"/></g><path class="cls-4" d="M314.41,186.06,318.19,175l-2,.63A47.8,47.8,0,0,1,314.41,186.06Z"/><ellipse class="cls-8" cx="292.52" cy="167.44" rx="4.67" ry="6.52"/><ellipse class="cls-4" cx="292.52" cy="167.44" rx="4.67" ry="6.52"/><path class="cls-8" d="M290.9,168.33c-2.65,0-2.65-4.12,0-4.12S293.55,168.33,290.9,168.33Z"/><ellipse class="cls-8" cx="268.85" cy="167.01" rx="3.97" ry="5.54"/><ellipse class="cls-4" cx="268.85" cy="167.01" rx="3.97" ry="5.54"/><path class="cls-8" d="M270.23,164.27a1.75,1.75,0,0,1,0,3.5A1.75,1.75,0,0,1,270.23,164.27Z"/><polygon class="cls-9" points="412.49 265.31 350.35 298.78 368.75 346.39 373.91 346.58 372.73 343.52 427.44 304.01 414.41 270.3 417.64 265.5 412.49 265.31"/><polygon class="cls-10" points="432.6 304.2 373.91 346.58 355.51 298.96 417.64 265.5 432.6 304.2"/><polygon class="cls-4" points="363.28 319.14 362.96 318.19 423.79 281.34 424.11 282.29 363.28 319.14"/><polygon class="cls-11" points="363.28 319.14 424.11 282.29 432.6 304.2 373.91 346.58 363.28 319.14"/><polygon class="cls-4" points="400.73 299 391.36 304.64 389.33 299.9 399.13 294.52 400.73 299"/><path
            class="cls-4"
            d="M390.22,275a8.33,8.33,0,0,0-5.3-.92,13.93,13.93,0,0,0-7.24,3.19,7.42,7.42,0,0,0-2.54,4.79,7.78,7.78,0,0,0,.71,4.19.42.42,0,0,0,.36.25c.36.15,1.18.29,2.05-.85-.57-1.23-1.75-5.2,1.62-7.94a14.39,14.39,0,0,1,3.71-1.62,7.76,7.76,0,0,1,5.44.19,4.81,4.81,0,0,1,1.37,1l.19.21c.08.1.16.2.23.31l.11.18.07.16a.85.85,0,0,0,1.59-.6A5.28,5.28,0,0,0,390.22,275Z"/><path
            class="cls-5"
            d="M394.67,265l-14.81-8.4-12.54,7.73s2.45,10,2,12.05l5.82,4a9.32,9.32,0,0,1,1-2.77l1-1.72,1.65-1.21,3.21,5.55c-.74,0-1.06-.32-1.71-.16-2.6,2.42-.7,3.21-.7,3.21l6.05,1c1.57.94,3.76.25,6.33-5.92C397.33,265.61,394.67,265,394.67,265Z"/><path
            class="cls-5"
            d="M217.39,238.35a24.22,24.22,0,0,0,4.88,12.06A10.67,10.67,0,0,1,223,262c-2.12,3.35-4.35,7.09-8,7.78-2.18-.72-18.46-3.69-21-4.75-1.3-.8-.24-2.65-.24-2.65l11.21.19L193.27,256S190,254.61,191,252.9s5.46,1.63,5.46,1.63l8.9,3.36s.84-.84-1.14-2-10.91-8.48-11.92-10.06.43-3.33,2.76-1.87,10.82,6.92,12.64,7.88c.88-.08-.46-1.66-1.08-2.13s-7.41-6.91-8.28-8.12-2.27-3.9-.47-4,9.44,6.27,9.44,6.27,5.75,4.71,7.38,4.48c.16-.85-.57-2.3-.66-3.52S213.52,236.06,217.39,238.35Z"/><polygon class="cls-12" points="220.9 273.04 213.56 271.29 223.95 249.88 230.61 253.16 220.9 273.04"/><polygon class="cls-13" points="284.04 317.92 280.86 320.32 279.58 300.66 284.04 317.92"/><path class="cls-12" d="M308.13,214.38,302.84,210,293,222.73l-1.79-10.6a123.09,123.09,0,0,0-11.53,43.13c-.19,21-.45,43.9-.9,48,5.42,1,21,3.46,45-4.67C316.94,277.4,307.35,251.44,308.13,214.38Z"/><path class="cls-14" d="M288.62,219.85l1.23,8.2a10,10,0,0,1,5.88.47c1.61-5.3,2.23-8.12,2.23-8.12s-2-.94-5,1C291.43,219.82,290.31,219.53,288.62,219.85Z"/><path class="cls-15" d="M289.85,228.05l-9,62,4.76,9.83,9.1-11,1-60.35S292.56,226.17,289.85,228.05Z"/><path class="cls-16" d="M301.24,208.14,293,221.38s3.05-1.58,9.38,1.35C303,210.88,301.24,208.14,301.24,208.14Z"/><path class="cls-16" d="M293,221.38s-4.38-2.15-8.34.4l7.11-11.51Z"/><path
            class="cls-17"
            d="M356.1,362.31l-34.25,18.76-8.2-42.53,8.2-13.84-3.21-17.62s-20,1.46-37.27,0l4.24,27.45s-8.35,25.3-11.09,37.95c2.68,2.71,0,6.32-2.3,7.68-3.61,6.33-16.12,47.25-27.9,53.58,0,0-2.88,10.84,20.23,19.88,8.65,2.71,6.85-2.26,6.85-2.26s18.52-51.77,16.9-64l2.9-6.32-1.36-2.25,5.9-12.56s6.55,11.7,9.14,23.76l-.18,1.87,3.44,7.8,55.11-10.5Z"/><path class="cls-18" d="M271.55,452.45c-.36-2-5.4-2.7-6.82-3.45a64.38,64.38,0,0,1-14.23-10.28c-2.75-2.2-4.5-5.11-5.76-5.21l-.43.24s-2.88,10.84,20.23,19.88C270.48,455.49,271.49,453.74,271.55,452.45Z"/><path class="cls-19" d="M250.71,439l-5.44,6.23,12.33,6.56,3.62-4.6S253.25,441.66,250.71,439Z"/><path
            class="cls-20"
            d="M257.87,466.85A98,98,0,0,0,259.65,453l-12.2-7.12s4.18-1.58,4.4-5.65l-4.52-1.58s-5.76,4.4-10.05,1.47c-5.65-1.47-26.77-11.29-30-14.91,0,0,4.18,15.25,29.59,34.9l10.1,2.22c-2.94,4.07-2.74,4-2.74,4s1.72.86,6.11,1.24h7.16Q257.68,467.21,257.87,466.85Z"/><path class="cls-20" d="M250.71,439l-5.44,6.23,12.33,6.56,3.62-4.6S253.25,441.66,250.71,439Z"/><path
            class="cls-20"
            d="M257.87,466.85A98,98,0,0,0,259.65,453l-12.2-7.12s4.18-1.58,4.4-5.65l-4.52-1.58s-5.76,4.4-10.05,1.47c-5.65-1.47-26.77-11.29-30-14.91,0,0,4.18,15.25,29.59,34.9l10.1,2.22c-2.94,4.07-2.74,4-2.74,4s1.72.86,6.11,1.24h7.16Q257.68,467.21,257.87,466.85Z"/><path class="cls-20" d="M361.18,381.41l7.85-1.77L363,367l-5.31,1.54S359.88,375.71,361.18,381.41Z"/><path class="cls-20" d="M384,373.61l-6.32-7.24c4.44-1.41,4.25-1.47,4.25-1.47l-6.78-10.08L363,366.3l5.18,12.06s-4-1.13-6.41,1.78l2.5,3.68s6.74-.1,8.32,4.46c3.41,4.22,13.75,23.24,14.19,27.75C386.79,416,392.1,402.34,384,373.61Z"/><line class="cls-20" x1="257.47" y1="467.52" x2="245.92" y2="467.52"/><path class="cls-10" d="M278.88,302.36V309s2.82,5.18,36.25-.69l-1.49-6.76S286.67,305.52,278.88,302.36Z"/><path class="cls-21" d="M281.36,303v7.28a31.83,31.83,0,0,0,8.47.83v-7.56A47.56,47.56,0,0,1,281.36,303Z"/><polygon class="cls-12" points="363.33 264.86 367.85 271.86 386.83 258.54 380.95 252.21 363.33 264.86"/><path class="cls-22" d="M348.21,238.26l15,30.06,22-14.59-30.56-32.35-34-.57-4.16-4.39s-9.94-3-15.31-8.27c0,0-10,42.29-1.24,115,0,0,14.21,1.09,31.83-6.59,0,0-15.45-43.29-13.22-78.08Z"/><path class="cls-10" d="M308.13,233.35l-8.13,7,8.13,4.07-11.2,37.73s-3.37-48.48,4.31-74Z"/><polygon class="cls-15" points="300 292.31 318.3 290.5 318.64 292.31 300 294.34 300 292.31"/><path
            class="cls-22"
            d="M291.76,210.26l-3.36,3.11c-2.21,1.68-7.33,7.69-13.26,12.48-.73,2.73-.11,2.29-.94,4.9,0,0-12.74,31.13-16.24,37.44l-28.59-18.31L217.63,274.2l45.06,12.66,14.12-29.66c3.68,36.94-2,63.11-2,63.11h6C276.49,243.72,287.52,216.83,291.76,210.26Z"/><path class="cls-10" d="M291.76,210.26l-15.21,24.62,3.67,6-5.7,3.81s4.54,19.27,5.36,37.41C279.87,282.15,278.29,249.65,291.76,210.26Z"/><path
            class="cls-4"
            d="M274.63,191.91a.22.22,0,0,1-.1,0s0-.06.12-.17a2.69,2.69,0,0,1,.35-.19,6.2,6.2,0,0,1,.66-.25,13,13,0,0,1,2.59-.53,27.74,27.74,0,0,1,4.17-.11l1.13.07.57,0,.56.06.56.06.28,0,.27,0,1.06.15.51.07.49.09.93.17.83.16.72.16,1.41.31-1.43-.22-.72-.12-.84-.11-.93-.12-.49-.06-.51,0-1.06-.1-.27,0-.27,0-.55,0-.56,0-.56,0-1.12,0a35.63,35.63,0,0,0-4.09.2,22.62,22.62,0,0,0-2.53.42l-.66.15-.37.08c-.16,0-.21,0-.2,0S274.63,191.91,274.63,191.91Z"/></g>
    <g id="Rupee"><path
        class="cls-2"
        d="M641.41,442.82l-8.47,11.69h23.75c2.46.11,19.6,1.22,25.72,12.85H641.26L632.77,479h51.74c0,.23,0,.42,0,.64,0,0-.24,25.6-46.89,21.17v5.54l0,6,50.31,54.76h19.15v-2.44l-48.27-54.32v-.76s38,.55,44.28-30.4a1,1,0,0,1,0-.2h15.95l8.47-11.69H702.42a26,26,0,0,0-6.67-12.85h23.51l8.47-11.69H641.41Z"/><path
        class="cls-2"
        d="M427.85,581l-3,4.18h8.5c.88,0,7,.44,9.2,4.6H427.8l-3,4.18h18.51c0,.08,0,.15,0,.23s-.09,9.16-16.78,7.57v2l0,2.15,18,19.6h6.85v-.87l-17.27-19.44v-.27s13.59.2,15.85-10.88a.35.35,0,0,1,0-.07h5.71l3-4.18h-9a9.31,9.31,0,0,0-2.39-4.6h8.41l3-4.18H427.85Z"/><path
        class="cls-2"
        d="M305.89,591.63l-1.68,2.32h4.72c.49,0,3.9.24,5.11,2.55h-8.18l-1.69,2.32h10.28s0,.08,0,.13,0,5.09-9.32,4.21v2.29l10,10.88h3.81v-.48l-9.59-10.8v-.15s7.55.11,8.8-6a.19.19,0,0,1,0,0h3.17L323,596.5h-5a5.17,5.17,0,0,0-1.33-2.55h4.67l1.68-2.32H305.89Z"/><path
        class="cls-2"
        d="M593.93,282.64,592.24,285H597c.49,0,3.9.24,5.11,2.55H593.9l-1.69,2.32h10.28s0,.08,0,.13,0,5.09-9.32,4.21v2.29l10,10.88H607v-.48l-9.59-10.8v-.15s7.55.11,8.8-6a.19.19,0,0,1,0,0h3.17l1.68-2.32h-5a5.17,5.17,0,0,0-1.33-2.55h4.67l1.68-2.32H593.93Z"/></g>
    <g id="Gear_5" data-name="Gear 5"><path
        class="cls-2 rotate-gear-animation"
        d="M276,603.16a37.64,37.64,0,0,0,.44,5.77l-8.41,1.3.13.76c0,.24.09.53.16.87l.1.53.13.59c.17.82.41,1.76.69,2.77s.63,2.07,1,3.12.8,2.08,1.23,3,.86,1.83,1.25,2.57l.28.53.26.47c.17.3.31.56.44.76l.39.66,7.28-4.41a37.56,37.56,0,0,0,7.39,8.8l-5.6,6.4.15.13.43.37c.37.32.91.76,1.57,1.27l.52.4.56.41c.38.29.8.57,1.23.87.87.58,1.81,1.18,2.77,1.74s1.95,1.08,2.89,1.54l.7.33.67.31c.44.19.85.38,1.24.53l.56.23.51.2.82.31.72.25,2.76-8a37.28,37.28,0,0,0,11.17,2l-.11,8.51h2.15l.6,0,.65,0,.7,0c.48,0,1-.08,1.5-.12,1-.11,2.15-.24,3.24-.44a46,46,0,0,0,6-1.44l1.08-.36.83-.29.53-.2.19-.07-3-7.95a37.33,37.33,0,0,0,10.11-5.82l5.34,6.62.16-.13.44-.36.67-.57.85-.76a46.68,46.68,0,0,0,4.24-4.42c.72-.85,1.41-1.73,2-2.58l.23-.31.22-.31.42-.61.38-.58c.12-.19.25-.37.35-.55l.32-.51.28-.46.45-.76.37-.67-7.45-4.11A37.11,37.11,0,0,0,350,610.41l8.35,1.64.14-.75c.08-.48.2-1.17.31-2l0-.32,0-.33L359,608c0-.24,0-.48.07-.73s0-.51.06-.77l.05-.79c0-.13,0-.27,0-.41l0-.42,0-.43v-1.63c0-.14,0-.28,0-.42s0-.28,0-.41l0-.41c0-.27,0-.55,0-.81l0-.79c0-.26,0-.52-.06-.77l-.07-.73-.08-.69c0-.22,0-.44-.08-.65-.06-.41-.11-.79-.16-1.13l-.14-.87-.14-.75L350,596a37.09,37.09,0,0,0-3.87-10.71l7.46-4.08-.37-.67c-.12-.21-.27-.47-.44-.76l-.28-.46-.32-.51a46.1,46.1,0,0,0-3.6-5c-.71-.86-1.46-1.68-2.18-2.44l-.54-.55-.52-.52c-.34-.34-.67-.64-1-.93-.62-.56-1.14-1-1.52-1.33s-.59-.49-.59-.49l-5.37,6.6a37.32,37.32,0,0,0-10.09-5.86l3.07-7.94-.72-.27c-.46-.16-1.12-.4-1.91-.65a45.8,45.8,0,0,0-6-1.46c-1.1-.19-2.2-.34-3.24-.45l-.77-.07-.73-.06-.7,0h-.67l-.62,0h-2.15l.17,8.51a37.28,37.28,0,0,0-11.31,2l-2.74-8.05-.72.25-.82.31-.51.19-.56.23c-.78.31-1.67.71-2.61,1.17s-1.92,1-2.89,1.53-1.91,1.16-2.78,1.74c-.43.3-.85.58-1.23.87l-.56.41-.52.4c-.33.25-.63.5-.89.71l-.68.56-.43.37-.15.13,5.59,6.41a37.56,37.56,0,0,0-7.36,8.72l-7.26-4.43-.1.17-.29.49-.21.35-.23.41c-.17.3-.35.63-.55,1l-.3.58-.31.63c-.22.43-.42.89-.65,1.36-.43,1-.86,2-1.24,3s-.73,2.11-1,3.11c-.08.25-.14.5-.21.74s-.13.48-.19.71c-.11.47-.23.9-.31,1.31s-.17.78-.23,1.12-.12.62-.16.86l-.12.76,8.4,1.33A37.66,37.66,0,0,0,276,603.16Zm9.49-11.78a30.38,30.38,0,1,1-2.37,11.78A30.17,30.17,0,0,1,285.45,591.38Z"/></g>
    <g id="Gear_4" data-name="Gear 4"><path
        class="cls-2 rotate-gear-animation"
        d="M382.13,603.26a59.61,59.61,0,0,0,.7,9.13l-13.32,2.06.2,1.2c.06.38.15.84.25,1.37l.16.84.2.93c.27,1.3.66,2.8,1.1,4.39s1,3.27,1.6,4.94,1.27,3.3,2,4.81,1.36,2.9,2,4.07l.44.84.42.75c.26.47.49.88.69,1.21l.62,1,11.53-7a59.48,59.48,0,0,0,11.7,13.94l-8.88,10.14.24.21.68.58c.59.5,1.44,1.2,2.49,2l.82.63.89.66c.61.45,1.27.9,1.95,1.37,1.37.92,2.86,1.88,4.39,2.76s3.09,1.72,4.58,2.44c.37.19.74.35,1.1.52s.71.34,1.06.49c.7.3,1.35.6,2,.84l.88.36.8.31c.5.19.94.36,1.31.49l1.15.4,4.37-12.75a59,59,0,0,0,17.68,3.16l-.17,13.47H443l.95,0,1,0,1.1-.07c.76,0,1.55-.12,2.38-.19,1.65-.17,3.4-.38,5.14-.69a72.8,72.8,0,0,0,9.44-2.27l1.72-.56,1.31-.46.84-.31.3-.11-4.81-12.59a59.11,59.11,0,0,0,16-9.22l8.46,10.48.25-.2c.16-.13.4-.32.69-.57l1.06-.9,1.35-1.2a74,74,0,0,0,6.72-7c1.13-1.35,2.23-2.74,3.19-4.09l.36-.5.35-.49.66-1,.61-.92c.2-.3.39-.58.56-.87l.5-.81c.16-.26.31-.5.45-.73l.71-1.2.59-1.06-11.79-6.51a58.78,58.78,0,0,0,6.22-17.07l13.22,2.6.23-1.19c.13-.76.32-1.85.49-3.16l.07-.5.06-.52.13-1.1c0-.38.07-.77.11-1.16s.08-.8.1-1.21l.08-1.26c0-.21,0-.43,0-.66l0-.67q0-.34,0-.68v-.63q0-.61,0-1.23v-.72c0-.22,0-.44,0-.66s0-.44,0-.66l0-.65c0-.43,0-.86-.05-1.29l-.08-1.26c0-.41-.06-.82-.1-1.21l-.11-1.16-.13-1.1c0-.35-.08-.7-.13-1-.09-.65-.17-1.26-.26-1.79l-.23-1.37-.23-1.19-13.23,2.58a58.75,58.75,0,0,0-6.13-17l11.82-6.47-.59-1.06c-.18-.34-.43-.74-.7-1.2-.14-.23-.28-.48-.44-.74l-.5-.81a73,73,0,0,0-5.7-7.85c-1.12-1.36-2.32-2.66-3.46-3.86l-.85-.87c-.28-.29-.56-.55-.83-.82-.54-.54-1.07-1-1.55-1.47-1-.89-1.81-1.62-2.4-2.11s-.93-.77-.93-.77l-8.5,10.45a59.1,59.1,0,0,0-16-9.28l4.86-12.57-1.14-.43c-.73-.26-1.77-.64-3-1a72.59,72.59,0,0,0-9.43-2.31c-1.74-.31-3.49-.54-5.14-.71l-1.21-.11-1.16-.09-1.1-.07-.26,0h-.27l-.52,0-1,0h-2.19l-1.21,0,.26,13.47a59,59,0,0,0-17.91,3.13l-4.35-12.76-1.15.4c-.37.12-.8.29-1.31.49l-.8.31-.88.36c-1.23.5-2.64,1.13-4.13,1.85s-3,1.55-4.58,2.43-3,1.83-4.4,2.75c-.68.47-1.34.92-2,1.37l-.89.65-.82.63c-.53.4-1,.78-1.42,1.12s-.78.64-1.07.89l-.68.58-.24.21,8.86,10.15a59.48,59.48,0,0,0-11.65,13.81l-11.5-7-.17.27-.46.77-.33.55-.37.66c-.26.47-.56,1-.87,1.59l-.48.91-.49,1c-.35.68-.67,1.41-1,2.16-.67,1.51-1.36,3.14-2,4.8s-1.16,3.34-1.62,4.93c-.12.4-.22.79-.33,1.17s-.21.76-.3,1.13c-.18.74-.36,1.43-.49,2.08s-.27,1.24-.37,1.77-.19,1-.26,1.37l-.2,1.2,13.31,2.11A59.64,59.64,0,0,0,382.13,603.26Zm15-18.65a48.12,48.12,0,1,1-3.76,18.65A47.78,47.78,0,0,1,397.16,584.61Z"/></g>
    <g id="Gear_3" data-name="Gear 3"><path
        class="cls-2 rotate-gear-animation"
        d="M542.39,498.51A137.86,137.86,0,0,0,544,519.63l-30.79,4.76.46,2.77c.14.88.34,1.95.58,3.17l.37,1.95.46,2.15c.63,3,1.52,6.46,2.54,10.15s2.31,7.57,3.7,11.41,2.94,7.62,4.51,11.12,3.14,6.7,4.58,9.41l1,1.94,1,1.73c.61,1.09,1.13,2,1.59,2.8l1.43,2.42,26.65-16.14a137.53,137.53,0,0,0,27.06,32.24L568.61,625l.55.49,1.58,1.34c1.36,1.16,3.33,2.78,5.75,4.66l1.89,1.45c.66.5,1.35,1,2.06,1.51,1.41,1,2.94,2.09,4.51,3.18,3.18,2.14,6.62,4.34,10.15,6.38s7.14,4,10.58,5.64c.85.43,1.71.82,2.55,1.21s1.65.78,2.45,1.13c1.61.7,3.12,1.38,4.55,1.95l2,.83c.65.27,1.27.49,1.85.71,1.17.44,2.17.84,3,1.13l2.65.93L634.88,628a136.54,136.54,0,0,0,40.89,7.31l-.4,31.15,2.61,0h1.55l1.74,0,2,0c.7,0,1.43,0,2.19-.07l2.39-.09,2.55-.16c1.75-.09,3.59-.28,5.5-.44,3.81-.4,7.86-.89,11.88-1.6a168.35,168.35,0,0,0,21.83-5.26c1.46-.48,2.8-.9,4-1.3l3-1.07c.84-.3,1.49-.56,1.94-.73l.69-.26L728.1,626.39a136.7,136.7,0,0,0,37-21.31l19.56,24.25.57-.46c.37-.3.92-.74,1.6-1.32l2.46-2.08c.93-.83,2-1.75,3.12-2.78A171,171,0,0,0,808,606.51c2.62-3.13,5.15-6.34,7.38-9.45l.84-1.15.8-1.14,1.54-2.22,1.41-2.13c.45-.69.9-1.35,1.3-2l1.16-1.86c.37-.59.72-1.15,1-1.69l1.64-2.77,1.37-2.45-27.27-15.06a135.94,135.94,0,0,0,14.39-39.48l30.57,6,.53-2.76c.29-1.76.74-4.28,1.14-7.31l.16-1.16.14-1.21.29-2.54c.1-.87.16-1.77.25-2.69s.18-1.85.23-2.81l.19-2.91c0-.48.05-1,.07-1.51s0-1,.06-1.55,0-1,.06-1.56v-1.45q0-1.42,0-2.84v-1.67c0-.51,0-1,0-1.53s0-1,0-1.52l-.06-1.51c0-1-.07-2-.12-3s-.12-2-.18-2.91-.14-1.89-.22-2.81l-.24-2.69-.29-2.54c-.09-.82-.18-1.61-.29-2.37-.22-1.51-.39-2.91-.6-4.14l-.53-3.18-.52-2.76-30.58,6a135.87,135.87,0,0,0-14.17-39.23l27.34-15-1.37-2.45c-.43-.79-1-1.71-1.62-2.78-.32-.53-.65-1.11-1-1.7l-1.16-1.86A168.86,168.86,0,0,0,808.39,391c-2.6-3.15-5.36-6.16-8-8.93l-2-2c-.64-.66-1.3-1.28-1.92-1.89-1.24-1.24-2.47-2.36-3.59-3.4-2.26-2.07-4.18-3.74-5.56-4.88s-2.16-1.79-2.16-1.79l-19.66,24.17a136.68,136.68,0,0,0-36.94-21.46l11.24-29.06-2.63-1c-1.68-.6-4.08-1.47-7-2.39a167.87,167.87,0,0,0-21.8-5.35c-4-.71-8.07-1.24-11.88-1.65l-2.81-.25c-.92-.08-1.81-.16-2.69-.21l-2.55-.16-.61,0-.62,0-1.21,0-2.27-.08-1,0h-.89l-1.62,0h-1.56l-2.8,0,.61,31.15a136.54,136.54,0,0,0-41.42,7.25l-10-29.5-2.65.93c-.85.29-1.86.68-3,1.12l-1.85.71-2,.83c-2.84,1.15-6.1,2.61-9.55,4.27s-7,3.59-10.59,5.62-7,4.23-10.16,6.36c-1.57,1.1-3.11,2.13-4.51,3.17L578.61,364l-1.89,1.45c-1.22.92-2.3,1.81-3.28,2.59s-1.8,1.48-2.48,2.05l-1.58,1.34-.55.48,20.49,23.47a137.55,137.55,0,0,0-26.95,31.93L535.78,411s-.14.21-.38.63l-1.05,1.78-.75,1.27-.85,1.52c-.61,1.09-1.3,2.31-2,3.67L529.61,422l-1.14,2.29c-.8,1.56-1.55,3.25-2.37,5-1.56,3.5-3.14,7.27-4.55,11.1s-2.69,7.72-3.74,11.4c-.28.91-.51,1.83-.75,2.72s-.49,1.76-.69,2.61c-.41,1.71-.83,3.31-1.14,4.81s-.63,2.87-.85,4.09-.45,2.29-.6,3.17l-.46,2.77,30.77,4.89A137.9,137.9,0,0,0,542.39,498.51Zm34.74-43.13a111.28,111.28,0,1,1-8.7,43.13A110.48,110.48,0,0,1,577.13,455.38Z"/></g>
    <g id="Gear_2" data-name="Gear 2"><path
        class="cls-2 rotate-gear-animation"
        d="M564,294.24a37.64,37.64,0,0,0,.44,5.77l-8.41,1.3.13.76c0,.24.09.53.16.87l.1.53.13.59c.17.82.41,1.76.69,2.77s.63,2.07,1,3.12.8,2.08,1.23,3,.86,1.83,1.25,2.57l.28.53.26.47c.17.3.31.56.44.76l.39.66,7.28-4.41a37.56,37.56,0,0,0,7.39,8.8l-5.6,6.4.15.13.43.37c.37.32.91.76,1.57,1.27l.52.4.56.41c.38.29.8.57,1.23.87.87.58,1.81,1.18,2.77,1.74s1.95,1.08,2.89,1.54l.7.33.67.31c.44.19.85.38,1.24.53l.56.23.51.2.82.31.72.25,2.76-8a37.28,37.28,0,0,0,11.17,2l-.11,8.51h2.15l.6,0,.65,0,.7,0c.48,0,1-.08,1.5-.12,1-.11,2.15-.24,3.24-.44a46,46,0,0,0,6-1.44l1.08-.36.83-.29.53-.2.19-.07-3-7.95a37.33,37.33,0,0,0,10.11-5.82l5.34,6.62.16-.13.44-.36.67-.57.85-.76a46.71,46.71,0,0,0,4.24-4.42c.72-.85,1.4-1.73,2-2.58l.23-.31.22-.31.42-.61.38-.58c.12-.19.25-.37.35-.55l.32-.51.28-.46.45-.76.37-.67-7.45-4.11A37.12,37.12,0,0,0,638,301.49l8.35,1.64.14-.75c.08-.48.2-1.17.31-2l0-.32,0-.33L647,299c0-.24,0-.48.07-.73s0-.51.06-.77l.05-.79c0-.13,0-.27,0-.41l0-.42,0-.43v-1.63q0-.21,0-.42V293l0-.41c0-.27,0-.55,0-.81l0-.79c0-.26,0-.52-.06-.77l-.07-.73-.08-.69c0-.22,0-.44-.08-.65-.06-.41-.11-.79-.16-1.13l-.14-.87-.14-.75L638,287a37.09,37.09,0,0,0-3.87-10.71l7.46-4.08-.37-.67c-.12-.21-.27-.47-.44-.76l-.28-.46-.32-.51a46.09,46.09,0,0,0-3.6-5c-.71-.86-1.46-1.68-2.18-2.44l-.54-.55-.52-.52c-.34-.34-.67-.64-1-.93-.62-.56-1.14-1-1.52-1.33s-.59-.49-.59-.49l-5.37,6.6a37.32,37.32,0,0,0-10.09-5.86l3.07-7.94-.72-.27c-.46-.16-1.12-.4-1.91-.65a45.8,45.8,0,0,0-6-1.46c-1.1-.19-2.2-.34-3.24-.45l-.77-.07-.73-.06-.7,0h-.67l-.62,0h-2.15l.17,8.51a37.28,37.28,0,0,0-11.31,2l-2.74-8.05-.72.25-.82.31-.51.19-.56.23c-.78.31-1.67.71-2.61,1.17s-1.92,1-2.89,1.53-1.91,1.16-2.78,1.74c-.43.3-.85.58-1.23.87l-.56.41-.52.4c-.33.25-.63.5-.89.71l-.68.56-.43.37-.15.13,5.59,6.41a37.55,37.55,0,0,0-7.36,8.72l-7.26-4.43-.1.17-.29.49-.21.35-.23.41c-.17.3-.35.63-.55,1l-.3.58-.31.63c-.22.43-.42.89-.65,1.36-.43,1-.86,2-1.24,3s-.73,2.11-1,3.11c-.08.25-.14.5-.21.74s-.13.48-.19.71c-.11.47-.23.9-.31,1.31s-.17.78-.23,1.12-.12.62-.16.86l-.12.76,8.4,1.33A37.65,37.65,0,0,0,564,294.24Zm9.49-11.78a30.39,30.39,0,1,1-2.37,11.78A30.17,30.17,0,0,1,573.49,282.46Z"/></g>
    <g id="Gear_1" data-name="Gear 1"><path
        class="cls-2 rotate-gear-animation"
        d="M513,298.32a217.26,217.26,0,0,0-1.43-24.93l39.06-4.51-.37-3.16-.51-3.62-.31-2.23c-.12-.78-.26-1.6-.4-2.46-.54-3.43-1.28-7.42-2.17-11.68s-2-8.77-3.17-13.25l-.91-3.35c-.31-1.11-.65-2.21-1-3.31l-1-3.25-1-3.15c-.34-1-.66-2.05-1-3l-1-2.89-1-2.74-1-2.54c-1.21-3.26-2.34-5.93-3.1-7.81-.38-.94-.7-1.67-.92-2.17l-.33-.76-36.1,15.61a214.77,214.77,0,0,0-24.83-43l31.55-23.48s-.17-.24-.5-.67l-1.43-1.87-2.23-2.9-3-3.69c-4.39-5.39-10.52-12.35-17.07-18.9s-13.5-12.7-18.88-17.1l-3.69-3c-1.11-.88-2.09-1.61-2.9-2.23l-1.87-1.43-.66-.5-23.52,31.52a214.78,214.78,0,0,0-42.61-24.74l15.71-36-.76-.33c-.5-.21-1.22-.55-2.16-.93l-3.39-1.38-2.09-.85-2.33-.89c-1.63-.61-3.38-1.3-5.27-1.95s-3.85-1.38-5.93-2-4.2-1.38-6.39-2l-3.3-1c-1.11-.32-2.23-.61-3.35-.92s-2.24-.61-3.36-.9l-3.35-.82c-2.21-.56-4.41-1-6.53-1.49s-4.19-.85-6.14-1.23-3.81-.69-5.53-1c-6.86-1.13-11.47-1.62-11.47-1.62l-4.62,39a217.65,217.65,0,0,0-50.5-.08l-4.5-39.06-3.16.37-3.62.51-2.23.31c-.78.12-1.6.26-2.46.4-3.43.54-7.42,1.28-11.68,2.17s-8.77,2-13.25,3.17l-3.35.91c-1.11.31-2.21.65-3.31,1l-3.25,1-3.15,1c-1,.34-2.05.66-3,1l-2.89,1-2.74,1-2.54,1c-3.26,1.21-5.93,2.34-7.81,3.1-.94.38-1.67.7-2.17.92l-.76.33,15.61,36.1a214.78,214.78,0,0,0-43,24.84L146.29,94.16l-.67.49-1.87,1.43-2.9,2.23-3.69,3c-5.39,4.39-12.35,10.52-18.9,17.08s-12.7,13.5-17.1,18.88l-3,3.69c-.88,1.11-1.61,2.09-2.23,2.89l-1.43,1.87c-.33.43-.5.67-.5.67l31.52,23.52a214.8,214.8,0,0,0-24.74,42.61l-36-15.71-.33.76c-.21.5-.55,1.22-.93,2.16l-1.39,3.39-.85,2.08-.89,2.33c-.61,1.63-1.3,3.38-1.95,5.27s-1.38,3.85-2,5.93-1.38,4.2-2,6.39l-1,3.3c-.32,1.11-.61,2.23-.91,3.35s-.61,2.24-.9,3.36l-.82,3.35c-.56,2.21-1,4.41-1.49,6.53s-.85,4.19-1.23,6.14-.69,3.81-1,5.53c-1.13,6.86-1.62,11.47-1.62,11.47l39,4.62a217.65,217.65,0,0,0-.08,50.5l-39.06,4.5.37,3.16.51,3.62.31,2.23c.12.78.26,1.6.4,2.46.54,3.43,1.28,7.43,2.17,11.68s2,8.77,3.17,13.25l.91,3.35c.31,1.11.65,2.21,1,3.31l1,3.25,1,3.15c.34,1,.66,2.05,1,3l1,2.89,1,2.74,1,2.54c1.21,3.26,2.34,5.93,3.1,7.81.38.94.7,1.67.92,2.17l.33.76,36.1-15.61a214.75,214.75,0,0,0,24.84,43L93.82,450s.17.24.5.67l1.43,1.87,2.23,2.9,3,3.69c4.39,5.39,10.52,12.35,17.07,18.91s13.5,12.7,18.88,17.1l3.69,3c1.11.88,2.09,1.61,2.89,2.23l1.87,1.43.66.5,23.52-31.52a214.8,214.8,0,0,0,42.61,24.74l-15.71,36,.76.33c.5.21,1.22.55,2.16.93l3.39,1.38,2.08.85,2.33.89c1.63.61,3.38,1.3,5.27,1.95s3.85,1.38,5.93,2,4.2,1.38,6.39,2l3.3,1c1.11.32,2.23.61,3.35.92s2.24.61,3.35.9l3.35.82c2.21.56,4.41,1,6.53,1.49s4.19.85,6.14,1.23,3.81.69,5.53,1c6.86,1.13,11.47,1.63,11.47,1.63l4.62-39a217.65,217.65,0,0,0,50.5.08l4.5,39.06,3.16-.37,3.62-.51,2.23-.31c.78-.12,1.6-.26,2.46-.4,3.43-.54,7.42-1.28,11.68-2.17s8.77-2,13.25-3.17l3.35-.91c1.11-.31,2.21-.65,3.31-1l3.25-1,3.15-1c1-.34,2.05-.66,3-1l2.89-1,2.74-1,2.54-1c3.26-1.21,5.93-2.34,7.81-3.1.94-.38,1.67-.7,2.17-.92l.76-.33-15.61-36.1a214.78,214.78,0,0,0,43-24.83l23.48,31.55.67-.5,1.87-1.43,2.9-2.23,3.69-3c5.39-4.39,12.35-10.52,18.9-17.08s12.7-13.5,17.1-18.88l3-3.69c.88-1.11,1.61-2.09,2.23-2.89l1.43-1.87c.33-.43.5-.67.5-.67l-31.52-23.52a214.77,214.77,0,0,0,24.74-42.61l36,15.71.33-.76c.21-.5.55-1.22.93-2.16l1.38-3.39.85-2.08.89-2.33c.61-1.63,1.3-3.38,1.95-5.27s1.38-3.85,2-5.93,1.38-4.2,2-6.39l1-3.3c.32-1.11.61-2.23.92-3.35s.61-2.24.9-3.35l.82-3.35c.56-2.21,1-4.41,1.49-6.53s.85-4.19,1.23-6.14.69-3.81,1-5.53c1.13-6.86,1.63-11.47,1.63-11.47l-39-4.62A217.23,217.23,0,0,0,513,298.32ZM296.66,479.75c-99.9,0-181.17-81.27-181.17-181.17s81.27-181.17,181.17-181.17,181.17,81.27,181.17,181.17S396.56,479.75,296.66,479.75Z"/>
                  </g>
</svg>
